<svg id="Layer_2" data-name="Layer 2" xmlns="http://www.w3.org/2000/svg" xmlns:xlink="http://www.w3.org/1999/xlink" viewBox="0 0 684 625.05"><defs><style>.cls-1{fill:url(#linear-gradient);}.cls-2{stroke-miterlimit:10;fill:url(#linear-gradient-2);stroke:url(#linear-gradient-3);}.cls-3{fill:url(#linear-gradient-4);}</style><linearGradient id="linear-gradient" x1="207.69" y1="574.49" x2="308.61" y2="574.49" gradientUnits="userSpaceOnUse"><stop offset="0" stop-color="#5a9de1"/><stop offset="1" stop-color="#d03b6d"/></linearGradient><linearGradient id="linear-gradient-2" x1="319" y1="328.5" x2="1002" y2="328.5" xlink:href="#linear-gradient"/><linearGradient id="linear-gradient-3" x1="318.5" y1="328.5" x2="1002.5" y2="328.5" xlink:href="#linear-gradient"/><linearGradient id="linear-gradient-4" x1="477.1" y1="574.59" x2="578.01" y2="574.59" xlink:href="#linear-gradient"/></defs><circle class="cls-1" cx="258.15" cy="574.49" r="50.46"/><path class="cls-2" d="M998.65,186.53A16.52,16.52,0,0,0,985.5,180H869.24c-.22,0-.43-.1-.65-.13a16.52,16.52,0,0,0-5.4.13H658.27a16.63,16.63,0,0,0-4.36-.24,16.93,16.93,0,0,0-1.76.24H470.46l-15.93-65.41a16.48,16.48,0,0,0-11.7-12l-103-28a16.5,16.5,0,0,0-8.66,31.84l93.6,25.45,16.62,68.21,55.66,275.45A55.49,55.49,0,0,0,516.5,583h372a16.5,16.5,0,0,0,0-33h-372a22.5,22.5,0,0,1,0-45h0a17.77,17.77,0,0,0,1.8-.1h.08l235.09-27c.34,0,.68.09,1,.11l1,0a16.45,16.45,0,0,0,5.7-1l157.16-18.08a16.5,16.5,0,0,0,14-11.93l69-246A16.52,16.52,0,0,0,998.65,186.53ZM773.19,442.37,787.06,213h60.11L815,437.57Zm-80.59,9.27L673.17,213H754L739.9,446.2Zm-77.25,8.88L576,213h64.07L659.8,455.41ZM542.57,213l40,251.3-52.86,6.08L477.67,213Zm361,214.37-54.74,6.3L880.51,213h83.23Z" transform="translate(-318.5 -73.5)"/><circle class="cls-3" cx="527.56" cy="574.59" r="50.46"/></svg>